<mxfile host="app.diagrams.net" modified="2024-06-05T20:19:44.621Z" agent="Mozilla/5.0 (Macintosh; Intel Mac OS X 10_15_7) AppleWebKit/537.36 (KHTML, like Gecko) Chrome/125.0.0.0 Safari/537.36" etag="mlhKVQ4Yq-58Xqt455mv" version="24.4.13" type="github" pages="2">
  <diagram name="Use case diagram" id="KO8eccivkffMantd-eID">
    <mxGraphModel dx="2037" dy="801" grid="1" gridSize="10" guides="1" tooltips="1" connect="1" arrows="1" fold="1" page="1" pageScale="1" pageWidth="1169" pageHeight="827" background="#ffffff" math="0" shadow="0">
      <root>
        <mxCell id="0" />
        <mxCell id="1" parent="0" />
        <mxCell id="imPviMisf_XKloQbzYQ--1" value="" style="rounded=0;whiteSpace=wrap;html=1;" vertex="1" parent="1">
          <mxGeometry x="430" y="40" width="540" height="750" as="geometry" />
        </mxCell>
        <mxCell id="5TK5gt7YQnhFBXpB2Vo4-21" style="rounded=0;orthogonalLoop=1;jettySize=auto;html=1;exitX=0.5;exitY=0.5;exitDx=0;exitDy=0;exitPerimeter=0;entryX=0;entryY=0.5;entryDx=0;entryDy=0;endArrow=none;endFill=0;" edge="1" parent="1" source="1TfUN-xvJbZEo7LDZfdU-1" target="5TK5gt7YQnhFBXpB2Vo4-17">
          <mxGeometry relative="1" as="geometry" />
        </mxCell>
        <mxCell id="5TK5gt7YQnhFBXpB2Vo4-22" style="rounded=0;orthogonalLoop=1;jettySize=auto;html=1;exitX=0.5;exitY=0.5;exitDx=0;exitDy=0;exitPerimeter=0;entryX=0;entryY=0.5;entryDx=0;entryDy=0;endArrow=none;endFill=0;" edge="1" parent="1" source="1TfUN-xvJbZEo7LDZfdU-1" target="5TK5gt7YQnhFBXpB2Vo4-18">
          <mxGeometry relative="1" as="geometry" />
        </mxCell>
        <mxCell id="5TK5gt7YQnhFBXpB2Vo4-23" style="rounded=0;orthogonalLoop=1;jettySize=auto;html=1;exitX=0.5;exitY=0.5;exitDx=0;exitDy=0;exitPerimeter=0;entryX=0;entryY=0.5;entryDx=0;entryDy=0;endArrow=none;endFill=0;" edge="1" parent="1" source="1TfUN-xvJbZEo7LDZfdU-1" target="5TK5gt7YQnhFBXpB2Vo4-19">
          <mxGeometry relative="1" as="geometry" />
        </mxCell>
        <mxCell id="5TK5gt7YQnhFBXpB2Vo4-25" style="rounded=0;orthogonalLoop=1;jettySize=auto;html=1;exitX=0.5;exitY=0.5;exitDx=0;exitDy=0;exitPerimeter=0;entryX=0;entryY=0.5;entryDx=0;entryDy=0;endArrow=none;endFill=0;" edge="1" parent="1" source="1TfUN-xvJbZEo7LDZfdU-1" target="1TfUN-xvJbZEo7LDZfdU-3">
          <mxGeometry relative="1" as="geometry" />
        </mxCell>
        <mxCell id="5TK5gt7YQnhFBXpB2Vo4-26" style="rounded=0;orthogonalLoop=1;jettySize=auto;html=1;exitX=0.5;exitY=0.5;exitDx=0;exitDy=0;exitPerimeter=0;entryX=0;entryY=0.5;entryDx=0;entryDy=0;endArrow=none;endFill=0;" edge="1" parent="1" source="1TfUN-xvJbZEo7LDZfdU-1" target="ued7pvjHnCahpqlDYuqO-1">
          <mxGeometry relative="1" as="geometry" />
        </mxCell>
        <mxCell id="5TK5gt7YQnhFBXpB2Vo4-27" style="rounded=0;orthogonalLoop=1;jettySize=auto;html=1;exitX=0.5;exitY=0.5;exitDx=0;exitDy=0;exitPerimeter=0;entryX=0;entryY=0.5;entryDx=0;entryDy=0;endArrow=none;endFill=0;" edge="1" parent="1" source="1TfUN-xvJbZEo7LDZfdU-1" target="ued7pvjHnCahpqlDYuqO-2">
          <mxGeometry relative="1" as="geometry" />
        </mxCell>
        <mxCell id="5TK5gt7YQnhFBXpB2Vo4-28" style="rounded=0;orthogonalLoop=1;jettySize=auto;html=1;exitX=0.5;exitY=0.5;exitDx=0;exitDy=0;exitPerimeter=0;entryX=0;entryY=0.5;entryDx=0;entryDy=0;endArrow=none;endFill=0;" edge="1" parent="1" source="1TfUN-xvJbZEo7LDZfdU-1" target="ued7pvjHnCahpqlDYuqO-3">
          <mxGeometry relative="1" as="geometry" />
        </mxCell>
        <mxCell id="5TK5gt7YQnhFBXpB2Vo4-29" style="rounded=0;orthogonalLoop=1;jettySize=auto;html=1;exitX=0.5;exitY=0.5;exitDx=0;exitDy=0;exitPerimeter=0;entryX=0;entryY=0.5;entryDx=0;entryDy=0;endArrow=none;endFill=0;" edge="1" parent="1" source="1TfUN-xvJbZEo7LDZfdU-1" target="5TK5gt7YQnhFBXpB2Vo4-1">
          <mxGeometry relative="1" as="geometry" />
        </mxCell>
        <mxCell id="5TK5gt7YQnhFBXpB2Vo4-30" style="rounded=0;orthogonalLoop=1;jettySize=auto;html=1;exitX=0.5;exitY=0.5;exitDx=0;exitDy=0;exitPerimeter=0;entryX=0;entryY=0.5;entryDx=0;entryDy=0;endArrow=none;endFill=0;" edge="1" parent="1" source="1TfUN-xvJbZEo7LDZfdU-1" target="ued7pvjHnCahpqlDYuqO-4">
          <mxGeometry relative="1" as="geometry" />
        </mxCell>
        <mxCell id="5TK5gt7YQnhFBXpB2Vo4-31" style="rounded=0;orthogonalLoop=1;jettySize=auto;html=1;exitX=0.5;exitY=0.5;exitDx=0;exitDy=0;exitPerimeter=0;entryX=0;entryY=0.5;entryDx=0;entryDy=0;endArrow=none;endFill=0;" edge="1" parent="1" source="1TfUN-xvJbZEo7LDZfdU-1" target="ued7pvjHnCahpqlDYuqO-5">
          <mxGeometry relative="1" as="geometry" />
        </mxCell>
        <mxCell id="1TfUN-xvJbZEo7LDZfdU-1" value="USER" style="shape=umlActor;verticalLabelPosition=bottom;verticalAlign=top;html=1;outlineConnect=0;" vertex="1" parent="1">
          <mxGeometry x="190" y="357" width="70" height="130" as="geometry" />
        </mxCell>
        <mxCell id="1TfUN-xvJbZEo7LDZfdU-3" value="Find children&amp;nbsp;&lt;div&gt;by address&lt;/div&gt;" style="ellipse;whiteSpace=wrap;html=1;" vertex="1" parent="1">
          <mxGeometry x="710" y="90" width="193.5" height="70" as="geometry" />
        </mxCell>
        <mxCell id="5TK5gt7YQnhFBXpB2Vo4-42" style="edgeStyle=orthogonalEdgeStyle;rounded=0;orthogonalLoop=1;jettySize=auto;html=1;strokeColor=#FF6666;endArrow=none;endFill=0;dashed=1;" edge="1" parent="1">
          <mxGeometry relative="1" as="geometry">
            <mxPoint x="899.63" y="214.74" as="targetPoint" />
            <mxPoint x="930" y="215" as="sourcePoint" />
          </mxGeometry>
        </mxCell>
        <mxCell id="ued7pvjHnCahpqlDYuqO-1" value="Find emails" style="ellipse;whiteSpace=wrap;html=1;" vertex="1" parent="1">
          <mxGeometry x="706.13" y="180" width="193.5" height="70" as="geometry" />
        </mxCell>
        <mxCell id="5TK5gt7YQnhFBXpB2Vo4-41" style="edgeStyle=orthogonalEdgeStyle;rounded=0;orthogonalLoop=1;jettySize=auto;html=1;endArrow=none;endFill=0;dashed=1;strokeColor=#FF3333;" edge="1" parent="1">
          <mxGeometry relative="1" as="geometry">
            <mxPoint x="903.5" y="304.85" as="targetPoint" />
            <mxPoint x="929" y="305" as="sourcePoint" />
          </mxGeometry>
        </mxCell>
        <mxCell id="ued7pvjHnCahpqlDYuqO-2" value="Find persons covered&amp;nbsp;&lt;div&gt;by a firestation&lt;/div&gt;" style="ellipse;whiteSpace=wrap;html=1;" vertex="1" parent="1">
          <mxGeometry x="710" y="270" width="193.5" height="70" as="geometry" />
        </mxCell>
        <mxCell id="ued7pvjHnCahpqlDYuqO-3" value="Find persons with&amp;nbsp;&lt;div&gt;medical history&lt;/div&gt;" style="ellipse;whiteSpace=wrap;html=1;" vertex="1" parent="1">
          <mxGeometry x="723.5" y="365" width="180" height="80" as="geometry" />
        </mxCell>
        <mxCell id="5TK5gt7YQnhFBXpB2Vo4-47" style="rounded=0;orthogonalLoop=1;jettySize=auto;html=1;endArrow=none;endFill=0;dashed=1;strokeColor=#FF3333;entryX=0.998;entryY=0.489;entryDx=0;entryDy=0;entryPerimeter=0;" edge="1" parent="1" target="ued7pvjHnCahpqlDYuqO-4">
          <mxGeometry relative="1" as="geometry">
            <mxPoint x="870" y="609.31" as="targetPoint" />
            <mxPoint x="930.0000000000059" y="609.31" as="sourcePoint" />
          </mxGeometry>
        </mxCell>
        <mxCell id="ued7pvjHnCahpqlDYuqO-4" value="Find all information&amp;nbsp;&lt;div&gt;about a person&lt;/div&gt;" style="ellipse;whiteSpace=wrap;html=1;" vertex="1" parent="1">
          <mxGeometry x="720" y="570" width="179.63" height="80" as="geometry" />
        </mxCell>
        <mxCell id="ued7pvjHnCahpqlDYuqO-5" value="Find phone numbers" style="ellipse;whiteSpace=wrap;html=1;" vertex="1" parent="1">
          <mxGeometry x="716.75" y="670" width="180" height="80" as="geometry" />
        </mxCell>
        <mxCell id="5TK5gt7YQnhFBXpB2Vo4-1" value="Find persons&amp;nbsp;&lt;div&gt;by address&lt;/div&gt;" style="ellipse;whiteSpace=wrap;html=1;" vertex="1" parent="1">
          <mxGeometry x="720" y="470" width="179.63" height="80" as="geometry" />
        </mxCell>
        <mxCell id="5TK5gt7YQnhFBXpB2Vo4-2" value="SAFETYNET SYSTEM" style="text;html=1;align=center;verticalAlign=middle;whiteSpace=wrap;rounded=0;" vertex="1" parent="1">
          <mxGeometry x="610" y="50" width="160" height="20" as="geometry" />
        </mxCell>
        <mxCell id="5TK5gt7YQnhFBXpB2Vo4-17" value="" style="rounded=0;whiteSpace=wrap;html=1;" vertex="1" parent="1">
          <mxGeometry x="465" y="95" width="165" height="215" as="geometry" />
        </mxCell>
        <mxCell id="5TK5gt7YQnhFBXpB2Vo4-3" value="Create&amp;nbsp;&lt;div&gt;person&lt;/div&gt;" style="ellipse;whiteSpace=wrap;html=1;" vertex="1" parent="1">
          <mxGeometry x="501.5" y="250" width="92" height="40" as="geometry" />
        </mxCell>
        <mxCell id="5TK5gt7YQnhFBXpB2Vo4-5" value="Update&amp;nbsp;&lt;div&gt;person&lt;/div&gt;" style="ellipse;whiteSpace=wrap;html=1;" vertex="1" parent="1">
          <mxGeometry x="501.5" y="150" width="92" height="40" as="geometry" />
        </mxCell>
        <mxCell id="5TK5gt7YQnhFBXpB2Vo4-6" value="Delete&amp;nbsp;&lt;div&gt;person&lt;/div&gt;" style="ellipse;whiteSpace=wrap;html=1;" vertex="1" parent="1">
          <mxGeometry x="501.5" y="200" width="92" height="40" as="geometry" />
        </mxCell>
        <mxCell id="5TK5gt7YQnhFBXpB2Vo4-7" value="Find all&amp;nbsp;&lt;div&gt;person&lt;/div&gt;" style="ellipse;whiteSpace=wrap;html=1;" vertex="1" parent="1">
          <mxGeometry x="501.5" y="105" width="92" height="40" as="geometry" />
        </mxCell>
        <mxCell id="5TK5gt7YQnhFBXpB2Vo4-18" value="" style="rounded=0;whiteSpace=wrap;html=1;" vertex="1" parent="1">
          <mxGeometry x="465" y="320" width="165" height="215" as="geometry" />
        </mxCell>
        <mxCell id="5TK5gt7YQnhFBXpB2Vo4-8" value="Create&amp;nbsp;&lt;div&gt;fire station&lt;/div&gt;" style="ellipse;whiteSpace=wrap;html=1;" vertex="1" parent="1">
          <mxGeometry x="506.5" y="480" width="92" height="40" as="geometry" />
        </mxCell>
        <mxCell id="5TK5gt7YQnhFBXpB2Vo4-9" value="Update&amp;nbsp;&lt;div&gt;fire station&lt;/div&gt;" style="ellipse;whiteSpace=wrap;html=1;" vertex="1" parent="1">
          <mxGeometry x="501.5" y="380" width="92" height="40" as="geometry" />
        </mxCell>
        <mxCell id="5TK5gt7YQnhFBXpB2Vo4-10" value="Delete&amp;nbsp;&lt;div&gt;fire station&lt;/div&gt;" style="ellipse;whiteSpace=wrap;html=1;" vertex="1" parent="1">
          <mxGeometry x="503" y="430" width="92" height="40" as="geometry" />
        </mxCell>
        <mxCell id="5TK5gt7YQnhFBXpB2Vo4-11" value="Find all&amp;nbsp;&lt;div&gt;fire stations&lt;/div&gt;" style="ellipse;whiteSpace=wrap;html=1;" vertex="1" parent="1">
          <mxGeometry x="501.5" y="325" width="92" height="40" as="geometry" />
        </mxCell>
        <mxCell id="5TK5gt7YQnhFBXpB2Vo4-19" value="" style="rounded=0;whiteSpace=wrap;html=1;" vertex="1" parent="1">
          <mxGeometry x="465" y="550" width="165" height="215" as="geometry" />
        </mxCell>
        <mxCell id="5TK5gt7YQnhFBXpB2Vo4-13" value="Create&amp;nbsp;&lt;div&gt;medical record&lt;/div&gt;" style="ellipse;whiteSpace=wrap;html=1;" vertex="1" parent="1">
          <mxGeometry x="501.5" y="710" width="92" height="40" as="geometry" />
        </mxCell>
        <mxCell id="5TK5gt7YQnhFBXpB2Vo4-14" value="Update&amp;nbsp;&lt;div&gt;medical record&lt;/div&gt;" style="ellipse;whiteSpace=wrap;html=1;" vertex="1" parent="1">
          <mxGeometry x="506.5" y="610" width="92" height="40" as="geometry" />
        </mxCell>
        <mxCell id="5TK5gt7YQnhFBXpB2Vo4-15" value="Delete&amp;nbsp;&lt;div&gt;medical record&lt;/div&gt;" style="ellipse;whiteSpace=wrap;html=1;" vertex="1" parent="1">
          <mxGeometry x="501.5" y="659" width="93.5" height="40" as="geometry" />
        </mxCell>
        <mxCell id="5TK5gt7YQnhFBXpB2Vo4-16" value="Find all&amp;nbsp;&lt;div&gt;medical record&lt;/div&gt;" style="ellipse;whiteSpace=wrap;html=1;" vertex="1" parent="1">
          <mxGeometry x="503" y="560" width="92" height="40" as="geometry" />
        </mxCell>
        <mxCell id="5TK5gt7YQnhFBXpB2Vo4-40" style="rounded=0;orthogonalLoop=1;jettySize=auto;html=1;entryX=0.5;entryY=0;entryDx=0;entryDy=0;strokeColor=#FF3333;endArrow=classic;endFill=1;edgeStyle=orthogonalEdgeStyle;dashed=1;exitX=1;exitY=0.5;exitDx=0;exitDy=0;" edge="1" parent="1" target="5TK5gt7YQnhFBXpB2Vo4-7">
          <mxGeometry relative="1" as="geometry">
            <mxPoint x="896.75" y="700" as="sourcePoint" />
            <mxPoint x="547.5" y="95" as="targetPoint" />
            <Array as="points">
              <mxPoint x="930" y="700" />
              <mxPoint x="930" y="85" />
              <mxPoint x="548" y="85" />
              <mxPoint x="548" y="95" />
              <mxPoint x="548" y="95" />
            </Array>
          </mxGeometry>
        </mxCell>
        <mxCell id="5TK5gt7YQnhFBXpB2Vo4-46" style="rounded=0;orthogonalLoop=1;jettySize=auto;html=1;entryX=0.5;entryY=1;entryDx=0;entryDy=0;endArrow=none;endFill=0;strokeColor=#FF3333;dashed=1;" edge="1" parent="1">
          <mxGeometry relative="1" as="geometry">
            <mxPoint x="930" y="125" as="sourcePoint" />
            <mxPoint x="903.5" y="125" as="targetPoint" />
          </mxGeometry>
        </mxCell>
        <mxCell id="5TK5gt7YQnhFBXpB2Vo4-48" value="" style="endArrow=none;dashed=1;html=1;rounded=0;strokeColor=#FF3333;" edge="1" parent="1">
          <mxGeometry width="50" height="50" relative="1" as="geometry">
            <mxPoint x="899.63" y="509.71" as="sourcePoint" />
            <mxPoint x="930" y="510" as="targetPoint" />
          </mxGeometry>
        </mxCell>
        <mxCell id="5TK5gt7YQnhFBXpB2Vo4-54" value="&lt;font style=&quot;font-size: 7px;&quot; color=&quot;#ff3333&quot;&gt;&amp;lt;&amp;lt;includes&amp;gt;&amp;gt;&lt;/font&gt;" style="text;html=1;align=center;verticalAlign=middle;whiteSpace=wrap;rounded=0;rotation=-54;" vertex="1" parent="1">
          <mxGeometry x="677" y="445" width="46.5" height="10" as="geometry" />
        </mxCell>
        <mxCell id="5TK5gt7YQnhFBXpB2Vo4-55" value="&lt;font style=&quot;font-size: 7px;&quot; color=&quot;#ff3333&quot;&gt;&amp;lt;&amp;lt;includes&amp;gt;&amp;gt;&lt;/font&gt;" style="text;html=1;align=center;verticalAlign=middle;whiteSpace=wrap;rounded=0;rotation=-30;" vertex="1" parent="1">
          <mxGeometry x="661" y="528" width="60" height="9" as="geometry" />
        </mxCell>
        <mxCell id="5TK5gt7YQnhFBXpB2Vo4-56" value="&lt;font style=&quot;font-size: 7px;&quot; color=&quot;#ff3333&quot;&gt;&amp;lt;&amp;lt;includes&amp;gt;&amp;gt;&lt;/font&gt;" style="text;html=1;align=center;verticalAlign=middle;whiteSpace=wrap;rounded=0;rotation=14;" vertex="1" parent="1">
          <mxGeometry x="628" y="590" width="51" height="15" as="geometry" />
        </mxCell>
        <mxCell id="5TK5gt7YQnhFBXpB2Vo4-58" style="rounded=0;orthogonalLoop=1;jettySize=auto;html=1;entryX=1;entryY=0.5;entryDx=0;entryDy=0;dashed=1;endArrow=classic;endFill=1;strokeColor=#FF3333;exitX=0;exitY=0.5;exitDx=0;exitDy=0;" edge="1" parent="1" source="5TK5gt7YQnhFBXpB2Vo4-1" target="5TK5gt7YQnhFBXpB2Vo4-16">
          <mxGeometry relative="1" as="geometry" />
        </mxCell>
        <mxCell id="5TK5gt7YQnhFBXpB2Vo4-60" style="rounded=0;orthogonalLoop=1;jettySize=auto;html=1;entryX=1;entryY=0.5;entryDx=0;entryDy=0;dashed=1;endArrow=classic;endFill=1;strokeColor=#FF3333;exitX=0;exitY=0.5;exitDx=0;exitDy=0;" edge="1" parent="1" source="ued7pvjHnCahpqlDYuqO-3" target="5TK5gt7YQnhFBXpB2Vo4-16">
          <mxGeometry relative="1" as="geometry" />
        </mxCell>
        <mxCell id="5TK5gt7YQnhFBXpB2Vo4-67" style="rounded=0;orthogonalLoop=1;jettySize=auto;html=1;entryX=1;entryY=0.5;entryDx=0;entryDy=0;dashed=1;endArrow=classic;endFill=1;strokeColor=#FF3333;exitX=0;exitY=0.5;exitDx=0;exitDy=0;" edge="1" parent="1" source="ued7pvjHnCahpqlDYuqO-4" target="5TK5gt7YQnhFBXpB2Vo4-16">
          <mxGeometry relative="1" as="geometry" />
        </mxCell>
        <mxCell id="5TK5gt7YQnhFBXpB2Vo4-69" style="rounded=0;orthogonalLoop=1;jettySize=auto;html=1;entryX=1;entryY=0.5;entryDx=0;entryDy=0;dashed=1;endArrow=classic;endFill=1;strokeColor=#FF6666;exitX=0;exitY=0.5;exitDx=0;exitDy=0;" edge="1" parent="1" source="ued7pvjHnCahpqlDYuqO-2" target="5TK5gt7YQnhFBXpB2Vo4-11">
          <mxGeometry relative="1" as="geometry" />
        </mxCell>
        <mxCell id="5TK5gt7YQnhFBXpB2Vo4-70" value="&lt;font style=&quot;font-size: 7px;&quot; color=&quot;#ff3333&quot;&gt;&amp;lt;&amp;lt;includes&amp;gt;&amp;gt;&lt;/font&gt;" style="text;html=1;align=center;verticalAlign=middle;whiteSpace=wrap;rounded=0;rotation=-20;" vertex="1" parent="1">
          <mxGeometry x="633.5" y="325" width="46.5" height="10" as="geometry" />
        </mxCell>
        <mxCell id="5TK5gt7YQnhFBXpB2Vo4-72" style="rounded=0;orthogonalLoop=1;jettySize=auto;html=1;entryX=1;entryY=0.5;entryDx=0;entryDy=0;endArrow=classic;endFill=1;dashed=1;strokeColor=#FF3333;exitX=0;exitY=0.5;exitDx=0;exitDy=0;" edge="1" parent="1" source="1TfUN-xvJbZEo7LDZfdU-3" target="5TK5gt7YQnhFBXpB2Vo4-11">
          <mxGeometry relative="1" as="geometry" />
        </mxCell>
        <mxCell id="5TK5gt7YQnhFBXpB2Vo4-73" value="" style="endArrow=none;dashed=1;html=1;rounded=0;strokeColor=#FF3333;" edge="1" parent="1">
          <mxGeometry width="50" height="50" relative="1" as="geometry">
            <mxPoint x="903.5" y="399.71000000000004" as="sourcePoint" />
            <mxPoint x="930" y="400" as="targetPoint" />
          </mxGeometry>
        </mxCell>
        <mxCell id="5TK5gt7YQnhFBXpB2Vo4-74" style="rounded=0;orthogonalLoop=1;jettySize=auto;html=1;entryX=1;entryY=0.5;entryDx=0;entryDy=0;dashed=1;endArrow=classic;endFill=1;strokeColor=#FF3333;exitX=0;exitY=0.5;exitDx=0;exitDy=0;" edge="1" parent="1" source="ued7pvjHnCahpqlDYuqO-5" target="5TK5gt7YQnhFBXpB2Vo4-11">
          <mxGeometry relative="1" as="geometry" />
        </mxCell>
        <mxCell id="5TK5gt7YQnhFBXpB2Vo4-75" value="&lt;font style=&quot;font-size: 7px;&quot; color=&quot;#ff3333&quot;&gt;&amp;lt;&amp;lt;includes&amp;gt;&amp;gt;&lt;/font&gt;" style="text;html=1;align=center;verticalAlign=middle;whiteSpace=wrap;rounded=0;rotation=70;" vertex="1" parent="1">
          <mxGeometry x="680" y="659" width="60" height="9" as="geometry" />
        </mxCell>
        <mxCell id="5TK5gt7YQnhFBXpB2Vo4-78" value="&lt;font style=&quot;font-size: 7px;&quot; color=&quot;#ff3333&quot;&gt;&amp;lt;&amp;lt;includes&amp;gt;&amp;gt;&lt;/font&gt;" style="text;html=1;align=center;verticalAlign=middle;whiteSpace=wrap;rounded=0;rotation=-62;" vertex="1" parent="1">
          <mxGeometry x="659.63" y="190" width="46.5" height="10" as="geometry" />
        </mxCell>
        <mxCell id="5TK5gt7YQnhFBXpB2Vo4-79" value="&lt;font style=&quot;font-size: 7px;&quot; color=&quot;#ff3333&quot;&gt;&amp;lt;&amp;lt;includes&amp;gt;&amp;gt;&lt;/font&gt;" style="text;html=1;align=center;verticalAlign=middle;whiteSpace=wrap;rounded=0;rotation=90;" vertex="1" parent="1">
          <mxGeometry x="923.5" y="357" width="46.5" height="10" as="geometry" />
        </mxCell>
      </root>
    </mxGraphModel>
  </diagram>
  <diagram name="Class diagram" id="IZmtVSQumiPWv-o8FATY">
    <mxGraphModel grid="1" page="0" gridSize="10" guides="1" tooltips="1" connect="1" arrows="1" fold="1" pageScale="1" pageWidth="827" pageHeight="1169" background="none" math="0" shadow="0">
      <root>
        <mxCell id="0" />
        <mxCell id="1" parent="0" />
        <mxCell id="node25" value="&lt;p style=&quot;margin:0px;margin-top:4px;text-align:center;&quot;&gt;&lt;b&gt;ChildAlertController&lt;/b&gt;&lt;/p&gt;&lt;hr size=&quot;1&quot;/&gt;&lt;p style=&quot;margin:0 0 0 4px;line-height:1.6;&quot;&gt;+ ChildAlertController(PersonService): &lt;/p&gt;&lt;hr size=&quot;1&quot;/&gt;&lt;p style=&quot;margin:0 0 0 4px;line-height:1.6;&quot;&gt;+ findChildrenByAddress(String): ResponseEntity&amp;lt;List&amp;lt;ChildDto&amp;gt;&amp;gt;&lt;/p&gt;" style="verticalAlign=top;align=left;overflow=fill;fontSize=14;fontFamily=Helvetica;html=1;rounded=0;shadow=0;comic=0;labelBackgroundColor=none;strokeWidth=1;" parent="1" vertex="1">
          <mxGeometry x="84" y="95" width="447" height="95" as="geometry" />
        </mxCell>
        <mxCell id="node18" value="&lt;p style=&quot;margin:0px;margin-top:4px;text-align:center;&quot;&gt;&lt;b&gt;CommunityEmailController&lt;/b&gt;&lt;/p&gt;&lt;hr size=&quot;1&quot;/&gt;&lt;p style=&quot;margin:0 0 0 4px;line-height:1.6;&quot;&gt;+ CommunityEmailController(PersonService): &lt;/p&gt;&lt;hr size=&quot;1&quot;/&gt;&lt;p style=&quot;margin:0 0 0 4px;line-height:1.6;&quot;&gt;+ findEmails(String): ResponseEntity&amp;lt;TreeSet&amp;lt;String&amp;gt;&amp;gt;&lt;/p&gt;" style="verticalAlign=top;align=left;overflow=fill;fontSize=14;fontFamily=Helvetica;html=1;rounded=0;shadow=0;comic=0;labelBackgroundColor=none;strokeWidth=1;" parent="1" vertex="1">
          <mxGeometry x="-582" y="155" width="378" height="95" as="geometry" />
        </mxCell>
        <mxCell id="node13" value="&lt;p style=&quot;margin:0px;margin-top:4px;text-align:center;&quot;&gt;&lt;b&gt;DataLoadJson&lt;/b&gt;&lt;/p&gt;&lt;hr size=&quot;1&quot;/&gt;&lt;p style=&quot;margin:0 0 0 4px;line-height:1.6;&quot;&gt;+ DataLoadJson(Environment): &lt;/p&gt;&lt;hr size=&quot;1&quot;/&gt;&lt;p style=&quot;margin:0 0 0 4px;line-height:1.6;&quot;&gt;+ init(): void&lt;/p&gt;" style="verticalAlign=top;align=left;overflow=fill;fontSize=14;fontFamily=Helvetica;html=1;rounded=0;shadow=0;comic=0;labelBackgroundColor=none;strokeWidth=1;" parent="1" vertex="1">
          <mxGeometry x="2213" y="1255" width="228" height="95" as="geometry" />
        </mxCell>
        <mxCell id="node14" value="&lt;p style=&quot;margin:0px;margin-top:4px;text-align:center;&quot;&gt;&lt;b&gt;FireController&lt;/b&gt;&lt;/p&gt;&lt;hr size=&quot;1&quot;/&gt;&lt;p style=&quot;margin:0 0 0 4px;line-height:1.6;&quot;&gt;+ FireController(PersonService, FireStationService, PersonMapper): &lt;/p&gt;&lt;hr size=&quot;1&quot;/&gt;&lt;p style=&quot;margin:0 0 0 4px;line-height:1.6;&quot;&gt;+ findPersonsWithMedicalHistory(String): ResponseEntity&amp;lt;PersonsWithMedicalHistoryByStationDto&amp;gt;&lt;/p&gt;" style="verticalAlign=top;align=left;overflow=fill;fontSize=14;fontFamily=Helvetica;html=1;rounded=0;shadow=0;comic=0;labelBackgroundColor=none;strokeWidth=1;" parent="1" vertex="1">
          <mxGeometry x="-21" y="455" width="656" height="95" as="geometry" />
        </mxCell>
        <mxCell id="node0" value="&lt;p style=&quot;margin:0px;margin-top:4px;text-align:center;&quot;&gt;&lt;b&gt;FireStationController&lt;/b&gt;&lt;/p&gt;&lt;hr size=&quot;1&quot;/&gt;&lt;p style=&quot;margin:0 0 0 4px;line-height:1.6;&quot;&gt;+ FireStationController(FireStationService, PersonService): &lt;/p&gt;&lt;hr size=&quot;1&quot;/&gt;&lt;p style=&quot;margin:0 0 0 4px;line-height:1.6;&quot;&gt;+ createFireStation(FireStationDto): ResponseEntity&amp;lt;FireStationDto&amp;gt;&lt;br/&gt;+ deleteFireStation(FireStationDto): ResponseEntity&amp;lt;GenericResponseDto&amp;gt;&lt;br/&gt;+ findPersonsCoveredByFireStation(int): ResponseEntity&amp;lt;PersonsWithAgeRepartitionDto&amp;gt;&lt;br/&gt;+ updateFireStation(FireStationDto): ResponseEntity&amp;lt;FireStationDto&amp;gt;&lt;/p&gt;&lt;hr size=&quot;1&quot;/&gt;&lt;p style=&quot;margin:0 0 0 4px;line-height:1.6;&quot;&gt; fireStations: ResponseEntity&amp;lt;List&amp;lt;FireStationDto&amp;gt;&amp;gt;&lt;/p&gt;" style="verticalAlign=top;align=left;overflow=fill;fontSize=14;fontFamily=Helvetica;html=1;rounded=0;shadow=0;comic=0;labelBackgroundColor=none;strokeWidth=1;" parent="1" vertex="1">
          <mxGeometry x="-688" y="287" width="590" height="185" as="geometry" />
        </mxCell>
        <mxCell id="node21" value="&lt;p style=&quot;margin:0px;margin-top:4px;text-align:center;&quot;&gt;&lt;b&gt;FireStationEntity&lt;/b&gt;&lt;/p&gt;&lt;hr size=&quot;1&quot;/&gt;&lt;p style=&quot;margin:0 0 0 4px;line-height:1.6;&quot;&gt;~ FireStationEntity(String, int): &lt;/p&gt;&lt;hr size=&quot;1&quot;/&gt;&lt;p style=&quot;margin:0 0 0 4px;line-height:1.6;&quot;&gt;- address: String&lt;br/&gt;- station: int&lt;/p&gt;&lt;hr size=&quot;1&quot;/&gt;&lt;p style=&quot;margin:0 0 0 4px;line-height:1.6;&quot;&gt;+ builder(): FireStationEntityBuilder&lt;/p&gt;&lt;hr size=&quot;1&quot;/&gt;&lt;p style=&quot;margin:0 0 0 4px;line-height:1.6;&quot;&gt; address: String&lt;br/&gt; station: int&lt;/p&gt;" style="verticalAlign=top;align=left;overflow=fill;fontSize=14;fontFamily=Helvetica;html=1;rounded=0;shadow=0;comic=0;labelBackgroundColor=none;strokeWidth=1;" parent="1" vertex="1">
          <mxGeometry x="3150" y="1267" width="250" height="229" as="geometry" />
        </mxCell>
        <mxCell id="node12" value="&lt;p style=&quot;margin:0px;margin-top:4px;text-align:center;&quot;&gt;&lt;b&gt;FireStationEntityBuilder&lt;/b&gt;&lt;/p&gt;&lt;hr size=&quot;1&quot;/&gt;&lt;p style=&quot;margin:0 0 0 4px;line-height:1.6;&quot;&gt;~ FireStationEntityBuilder(): &lt;/p&gt;&lt;hr size=&quot;1&quot;/&gt;&lt;p style=&quot;margin:0 0 0 4px;line-height:1.6;&quot;&gt;+ address(String): FireStationEntityBuilder&lt;br/&gt;+ build(): FireStationEntity&lt;br/&gt;+ station(int): FireStationEntityBuilder&lt;br/&gt;+ toString(): String&lt;/p&gt;" style="verticalAlign=top;align=left;overflow=fill;fontSize=14;fontFamily=Helvetica;html=1;rounded=0;shadow=0;comic=0;labelBackgroundColor=none;strokeWidth=1;" parent="1" vertex="1">
          <mxGeometry x="1660" y="1279" width="294" height="160" as="geometry" />
        </mxCell>
        <mxCell id="node4" value="&lt;p style=&quot;margin:0px;margin-top:4px;text-align:center;&quot;&gt;&lt;i&gt;&amp;lt;&amp;lt;interface&amp;gt;&amp;gt;&lt;/i&gt;&lt;br/&gt;&lt;b&gt;FireStationRepository&lt;/b&gt;&lt;/p&gt;&lt;hr size=&quot;1&quot;/&gt;&lt;p style=&quot;margin:0 0 0 4px;line-height:1.6;&quot;&gt;+ delete(FireStationDto): boolean&lt;br/&gt;+ findAddressesByStation(int): List&amp;lt;String&amp;gt;&lt;br/&gt;+ findAll(): List&amp;lt;FireStationDto&amp;gt;&lt;br/&gt;+ findFireStation(String): FireStationDto&lt;br/&gt;+ save(FireStationDto): FireStationDto&lt;br/&gt;+ update(FireStationDto): FireStationDto&lt;/p&gt;" style="verticalAlign=top;align=left;overflow=fill;fontSize=14;fontFamily=Helvetica;html=1;rounded=0;shadow=0;comic=0;labelBackgroundColor=none;strokeWidth=1;" parent="1" vertex="1">
          <mxGeometry x="796" y="1228" width="302" height="183" as="geometry" />
        </mxCell>
        <mxCell id="node22" value="&lt;p style=&quot;margin:0px;margin-top:4px;text-align:center;&quot;&gt;&lt;b&gt;FireStationRepositoryImpl&lt;/b&gt;&lt;/p&gt;&lt;hr size=&quot;1&quot;/&gt;&lt;p style=&quot;margin:0 0 0 4px;line-height:1.6;&quot;&gt;+ FireStationRepositoryImpl(FireStationMapper): &lt;/p&gt;&lt;hr size=&quot;1&quot;/&gt;&lt;p style=&quot;margin:0 0 0 4px;line-height:1.6;&quot;&gt;+ delete(FireStationDto): boolean&lt;br/&gt;+ findAddressesByStation(int): List&amp;lt;String&amp;gt;&lt;br/&gt;+ findAll(): List&amp;lt;FireStationDto&amp;gt;&lt;br/&gt;+ findFireStation(String): FireStationDto&lt;br/&gt;+ save(FireStationDto): FireStationDto&lt;br/&gt;+ update(FireStationDto): FireStationDto&lt;/p&gt;" style="verticalAlign=top;align=left;overflow=fill;fontSize=14;fontFamily=Helvetica;html=1;rounded=0;shadow=0;comic=0;labelBackgroundColor=none;strokeWidth=1;" parent="1" vertex="1">
          <mxGeometry x="140" y="1255" width="335" height="208" as="geometry" />
        </mxCell>
        <mxCell id="node27" value="&lt;p style=&quot;margin:0px;margin-top:4px;text-align:center;&quot;&gt;&lt;i&gt;&amp;lt;&amp;lt;interface&amp;gt;&amp;gt;&lt;/i&gt;&lt;br/&gt;&lt;b&gt;FireStationService&lt;/b&gt;&lt;/p&gt;&lt;hr size=&quot;1&quot;/&gt;&lt;p style=&quot;margin:0 0 0 4px;line-height:1.6;&quot;&gt;+ delete(FireStationDto): GenericResponseDto&lt;br/&gt;+ findAddressesByStation(int): List&amp;lt;String&amp;gt;&lt;br/&gt;+ findAll(): List&amp;lt;FireStationDto&amp;gt;&lt;br/&gt;+ findStation(String): int&lt;br/&gt;+ save(FireStationDto): FireStationDto&lt;br/&gt;+ update(FireStationDto): FireStationDto&lt;/p&gt;" style="verticalAlign=top;align=left;overflow=fill;fontSize=14;fontFamily=Helvetica;html=1;rounded=0;shadow=0;comic=0;labelBackgroundColor=none;strokeWidth=1;" parent="1" vertex="1">
          <mxGeometry x="787" y="868" width="320" height="183" as="geometry" />
        </mxCell>
        <mxCell id="node3" value="&lt;p style=&quot;margin:0px;margin-top:4px;text-align:center;&quot;&gt;&lt;b&gt;FireStationServiceImpl&lt;/b&gt;&lt;/p&gt;&lt;hr size=&quot;1&quot;/&gt;&lt;p style=&quot;margin:0 0 0 4px;line-height:1.6;&quot;&gt;+ FireStationServiceImpl(FireStationRepository): &lt;/p&gt;&lt;hr size=&quot;1&quot;/&gt;&lt;p style=&quot;margin:0 0 0 4px;line-height:1.6;&quot;&gt;+ delete(FireStationDto): GenericResponseDto&lt;br/&gt;+ findAddressesByStation(int): List&amp;lt;String&amp;gt;&lt;br/&gt;+ findAll(): List&amp;lt;FireStationDto&amp;gt;&lt;br/&gt;+ findStation(String): int&lt;br/&gt;+ save(FireStationDto): FireStationDto&lt;br/&gt;+ update(FireStationDto): FireStationDto&lt;/p&gt;" style="verticalAlign=top;align=left;overflow=fill;fontSize=14;fontFamily=Helvetica;html=1;rounded=0;shadow=0;comic=0;labelBackgroundColor=none;strokeWidth=1;" parent="1" vertex="1">
          <mxGeometry x="-560" y="1075" width="334" height="208" as="geometry" />
        </mxCell>
        <mxCell id="node5" value="&lt;p style=&quot;margin:0px;margin-top:4px;text-align:center;&quot;&gt;&lt;b&gt;FloodController&lt;/b&gt;&lt;/p&gt;&lt;hr size=&quot;1&quot;/&gt;&lt;p style=&quot;margin:0 0 0 4px;line-height:1.6;&quot;&gt;+ FloodController(PersonService, FireStationService, PersonMapper): &lt;/p&gt;&lt;hr size=&quot;1&quot;/&gt;&lt;p style=&quot;margin:0 0 0 4px;line-height:1.6;&quot;&gt;+ findPersonsWithMedicalHistory(int[]): ResponseEntity&amp;lt;Map&amp;lt;String, List&amp;lt;PersonWithoutAddressAndEmailDto&amp;gt;&amp;gt;&amp;gt;&lt;/p&gt;" style="verticalAlign=top;align=left;overflow=fill;fontSize=14;fontFamily=Helvetica;html=1;rounded=0;shadow=0;comic=0;labelBackgroundColor=none;strokeWidth=1;" parent="1" vertex="1">
          <mxGeometry x="-64" y="214" width="742" height="95" as="geometry" />
        </mxCell>
        <mxCell id="node28" value="&lt;p style=&quot;margin:0px;margin-top:4px;text-align:center;&quot;&gt;&lt;i&gt;&amp;lt;&amp;lt;record&amp;gt;&amp;gt;&lt;/i&gt;&lt;br/&gt;&lt;b&gt;JsonDataModel&lt;/b&gt;&lt;/p&gt;&lt;hr size=&quot;1&quot;/&gt;&lt;p style=&quot;margin:0 0 0 4px;line-height:1.6;&quot;&gt;+ JsonDataModel(List&amp;lt;PersonEntity&amp;gt;, List&amp;lt;FireStationEntity&amp;gt;, List&amp;lt;MedicalRecordEntity&amp;gt;): &lt;/p&gt;&lt;hr size=&quot;1&quot;/&gt;&lt;p style=&quot;margin:0 0 0 4px;line-height:1.6;&quot;&gt;+ firestations(): List&amp;lt;FireStationEntity&amp;gt;&lt;br/&gt;+ medicalrecords(): List&amp;lt;MedicalRecordEntity&amp;gt;&lt;br/&gt;+ persons(): List&amp;lt;PersonEntity&amp;gt;&lt;/p&gt;" style="verticalAlign=top;align=left;overflow=fill;fontSize=14;fontFamily=Helvetica;html=1;rounded=0;shadow=0;comic=0;labelBackgroundColor=none;strokeWidth=1;" parent="1" vertex="1">
          <mxGeometry x="1950" y="1468" width="580" height="170" as="geometry" />
        </mxCell>
        <mxCell id="node24" value="&lt;p style=&quot;margin:0px;margin-top:4px;text-align:center;&quot;&gt;&lt;b&gt;MedicalRecordController&lt;/b&gt;&lt;/p&gt;&lt;hr size=&quot;1&quot;/&gt;&lt;p style=&quot;margin:0 0 0 4px;line-height:1.6;&quot;&gt;+ MedicalRecordController(MedicalRecordService): &lt;/p&gt;&lt;hr size=&quot;1&quot;/&gt;&lt;p style=&quot;margin:0 0 0 4px;line-height:1.6;&quot;&gt;+ createMedicalRecord(MedicalRecordDto): ResponseEntity&amp;lt;MedicalRecordDto&amp;gt;&lt;br/&gt;+ deleteMedicalRecord(String, String): ResponseEntity&amp;lt;GenericResponseDto&amp;gt;&lt;br/&gt;+ findMedicalRecords(): ResponseEntity&amp;lt;List&amp;lt;MedicalRecordDto&amp;gt;&amp;gt;&lt;br/&gt;+ updateMedicalRecord(MedicalRecordDto): ResponseEntity&amp;lt;MedicalRecordDto&amp;gt;&lt;/p&gt;" style="verticalAlign=top;align=left;overflow=fill;fontSize=14;fontFamily=Helvetica;html=1;rounded=0;shadow=0;comic=0;labelBackgroundColor=none;strokeWidth=1;" parent="1" vertex="1">
          <mxGeometry x="-662" y="1719" width="538" height="160" as="geometry" />
        </mxCell>
        <mxCell id="node1" value="&lt;p style=&quot;margin:0px;margin-top:4px;text-align:center;&quot;&gt;&lt;b&gt;MedicalRecordEntity&lt;/b&gt;&lt;/p&gt;&lt;hr size=&quot;1&quot;/&gt;&lt;p style=&quot;margin:0 0 0 4px;line-height:1.6;&quot;&gt;~ MedicalRecordEntity(String, String, String, List&amp;lt;String&amp;gt;, List&amp;lt;String&amp;gt;): &lt;/p&gt;&lt;hr size=&quot;1&quot;/&gt;&lt;p style=&quot;margin:0 0 0 4px;line-height:1.6;&quot;&gt;- allergies: List&amp;lt;String&amp;gt;&lt;br/&gt;- birthdate: String&lt;br/&gt;- firstName: String&lt;br/&gt;- lastName: String&lt;br/&gt;- medications: List&amp;lt;String&amp;gt;&lt;/p&gt;&lt;hr size=&quot;1&quot;/&gt;&lt;p style=&quot;margin:0 0 0 4px;line-height:1.6;&quot;&gt;+ builder(): MedicalRecordEntityBuilder&lt;/p&gt;&lt;hr size=&quot;1&quot;/&gt;&lt;p style=&quot;margin:0 0 0 4px;line-height:1.6;&quot;&gt; allergies: List&amp;lt;String&amp;gt;&lt;br/&gt; birthdate: String&lt;br/&gt; firstName: String&lt;br/&gt; lastName: String&lt;br/&gt; medications: List&amp;lt;String&amp;gt;&lt;/p&gt;" style="verticalAlign=top;align=left;overflow=fill;fontSize=14;fontFamily=Helvetica;html=1;rounded=0;shadow=0;comic=0;labelBackgroundColor=none;strokeWidth=1;" parent="1" vertex="1">
          <mxGeometry x="2645" y="954" width="465" height="330" as="geometry" />
        </mxCell>
        <mxCell id="node2" value="&lt;p style=&quot;margin:0px;margin-top:4px;text-align:center;&quot;&gt;&lt;b&gt;MedicalRecordEntityBuilder&lt;/b&gt;&lt;/p&gt;&lt;hr size=&quot;1&quot;/&gt;&lt;p style=&quot;margin:0 0 0 4px;line-height:1.6;&quot;&gt;~ MedicalRecordEntityBuilder(): &lt;/p&gt;&lt;hr size=&quot;1&quot;/&gt;&lt;p style=&quot;margin:0 0 0 4px;line-height:1.6;&quot;&gt;+ allergies(List&amp;lt;String&amp;gt;): MedicalRecordEntityBuilder&lt;br/&gt;+ birthdate(String): MedicalRecordEntityBuilder&lt;br/&gt;+ build(): MedicalRecordEntity&lt;br/&gt;+ firstName(String): MedicalRecordEntityBuilder&lt;br/&gt;+ lastName(String): MedicalRecordEntityBuilder&lt;br/&gt;+ medications(List&amp;lt;String&amp;gt;): MedicalRecordEntityBuilder&lt;br/&gt;+ toString(): String&lt;/p&gt;" style="verticalAlign=top;align=left;overflow=fill;fontSize=14;fontFamily=Helvetica;html=1;rounded=0;shadow=0;comic=0;labelBackgroundColor=none;strokeWidth=1;" parent="1" vertex="1">
          <mxGeometry x="1696" y="923" width="383" height="232" as="geometry" />
        </mxCell>
        <mxCell id="node19" value="&lt;p style=&quot;margin:0px;margin-top:4px;text-align:center;&quot;&gt;&lt;i&gt;&amp;lt;&amp;lt;interface&amp;gt;&amp;gt;&lt;/i&gt;&lt;br/&gt;&lt;b&gt;MedicalRecordRepository&lt;/b&gt;&lt;/p&gt;&lt;hr size=&quot;1&quot;/&gt;&lt;p style=&quot;margin:0 0 0 4px;line-height:1.6;&quot;&gt;+ delete(String, String): boolean&lt;br/&gt;+ findAll(): List&amp;lt;MedicalRecordDto&amp;gt;&lt;br/&gt;+ findMedicalRecordByName(String, String): MedicalRecordDto&lt;br/&gt;+ findMedicalRecordsByPersons(List&amp;lt;PersonDto&amp;gt;): List&amp;lt;MedicalRecordDto&amp;gt;&lt;br/&gt;+ save(MedicalRecordDto): MedicalRecordDto&lt;br/&gt;+ update(MedicalRecordDto): MedicalRecordDto&lt;/p&gt;" style="verticalAlign=top;align=left;overflow=fill;fontSize=14;fontFamily=Helvetica;html=1;rounded=0;shadow=0;comic=0;labelBackgroundColor=none;strokeWidth=1;" parent="1" vertex="1">
          <mxGeometry x="1134" y="1468" width="507" height="183" as="geometry" />
        </mxCell>
        <mxCell id="node15" value="&lt;p style=&quot;margin:0px;margin-top:4px;text-align:center;&quot;&gt;&lt;b&gt;MedicalRecordRepositoryImpl&lt;/b&gt;&lt;/p&gt;&lt;hr size=&quot;1&quot;/&gt;&lt;p style=&quot;margin:0 0 0 4px;line-height:1.6;&quot;&gt;+ MedicalRecordRepositoryImpl(MedicalRecordMapper): &lt;/p&gt;&lt;hr size=&quot;1&quot;/&gt;&lt;p style=&quot;margin:0 0 0 4px;line-height:1.6;&quot;&gt;+ delete(String, String): boolean&lt;br/&gt;+ findAll(): List&amp;lt;MedicalRecordDto&amp;gt;&lt;br/&gt;+ findMedicalRecordByName(String, String): MedicalRecordDto&lt;br/&gt;+ findMedicalRecordsByPersons(List&amp;lt;PersonDto&amp;gt;): List&amp;lt;MedicalRecordDto&amp;gt;&lt;br/&gt;+ save(MedicalRecordDto): MedicalRecordDto&lt;br/&gt;+ update(MedicalRecordDto): MedicalRecordDto&lt;/p&gt;" style="verticalAlign=top;align=left;overflow=fill;fontSize=14;fontFamily=Helvetica;html=1;rounded=0;shadow=0;comic=0;labelBackgroundColor=none;strokeWidth=1;" parent="1" vertex="1">
          <mxGeometry x="51" y="1567" width="507" height="208" as="geometry" />
        </mxCell>
        <mxCell id="node17" value="&lt;p style=&quot;margin:0px;margin-top:4px;text-align:center;&quot;&gt;&lt;i&gt;&amp;lt;&amp;lt;interface&amp;gt;&amp;gt;&lt;/i&gt;&lt;br/&gt;&lt;b&gt;MedicalRecordService&lt;/b&gt;&lt;/p&gt;&lt;hr size=&quot;1&quot;/&gt;&lt;p style=&quot;margin:0 0 0 4px;line-height:1.6;&quot;&gt;+ delete(String, String): GenericResponseDto&lt;br/&gt;+ findAll(): List&amp;lt;MedicalRecordDto&amp;gt;&lt;br/&gt;+ save(MedicalRecordDto): MedicalRecordDto&lt;br/&gt;+ update(MedicalRecordDto): MedicalRecordDto&lt;/p&gt;" style="verticalAlign=top;align=left;overflow=fill;fontSize=14;fontFamily=Helvetica;html=1;rounded=0;shadow=0;comic=0;labelBackgroundColor=none;strokeWidth=1;" parent="1" vertex="1">
          <mxGeometry x="781" y="1692" width="333" height="169" as="geometry" />
        </mxCell>
        <mxCell id="node8" value="&lt;p style=&quot;margin:0px;margin-top:4px;text-align:center;&quot;&gt;&lt;b&gt;MedicalRecordServiceImpl&lt;/b&gt;&lt;/p&gt;&lt;hr size=&quot;1&quot;/&gt;&lt;p style=&quot;margin:0 0 0 4px;line-height:1.6;&quot;&gt;+ MedicalRecordServiceImpl(MedicalRecordRepository): &lt;/p&gt;&lt;hr size=&quot;1&quot;/&gt;&lt;p style=&quot;margin:0 0 0 4px;line-height:1.6;&quot;&gt;+ delete(String, String): GenericResponseDto&lt;br/&gt;+ findAll(): List&amp;lt;MedicalRecordDto&amp;gt;&lt;br/&gt;+ save(MedicalRecordDto): MedicalRecordDto&lt;br/&gt;+ update(MedicalRecordDto): MedicalRecordDto&lt;/p&gt;" style="verticalAlign=top;align=left;overflow=fill;fontSize=14;fontFamily=Helvetica;html=1;rounded=0;shadow=0;comic=0;labelBackgroundColor=none;strokeWidth=1;" parent="1" vertex="1">
          <mxGeometry x="-585" y="1439" width="384" height="160" as="geometry" />
        </mxCell>
        <mxCell id="node23" value="&lt;p style=&quot;margin:0px;margin-top:4px;text-align:center;&quot;&gt;&lt;b&gt;PersonController&lt;/b&gt;&lt;/p&gt;&lt;hr size=&quot;1&quot;/&gt;&lt;p style=&quot;margin:0 0 0 4px;line-height:1.6;&quot;&gt;+ PersonController(PersonService): &lt;/p&gt;&lt;hr size=&quot;1&quot;/&gt;&lt;p style=&quot;margin:0 0 0 4px;line-height:1.6;&quot;&gt;+ createPerson(PersonDto): ResponseEntity&amp;lt;PersonDto&amp;gt;&lt;br/&gt;+ deletePerson(String, String): ResponseEntity&amp;lt;GenericResponseDto&amp;gt;&lt;br/&gt;+ updatePerson(PersonDto): ResponseEntity&amp;lt;PersonLiteDto&amp;gt;&lt;/p&gt;&lt;hr size=&quot;1&quot;/&gt;&lt;p style=&quot;margin:0 0 0 4px;line-height:1.6;&quot;&gt; persons: ResponseEntity&amp;lt;List&amp;lt;PersonDto&amp;gt;&amp;gt;&lt;/p&gt;" style="verticalAlign=top;align=left;overflow=fill;fontSize=14;fontFamily=Helvetica;html=1;rounded=0;shadow=0;comic=0;labelBackgroundColor=none;strokeWidth=1;" parent="1" vertex="1">
          <mxGeometry x="74" y="-101" width="467" height="161" as="geometry" />
        </mxCell>
        <mxCell id="node20" value="&lt;p style=&quot;margin:0px;margin-top:4px;text-align:center;&quot;&gt;&lt;b&gt;PersonEntity&lt;/b&gt;&lt;/p&gt;&lt;hr size=&quot;1&quot;/&gt;&lt;p style=&quot;margin:0 0 0 4px;line-height:1.6;&quot;&gt;~ PersonEntity(String, String, String, String, String, String, String): &lt;/p&gt;&lt;hr size=&quot;1&quot;/&gt;&lt;p style=&quot;margin:0 0 0 4px;line-height:1.6;&quot;&gt;- address: String&lt;br/&gt;- city: String&lt;br/&gt;- email: String&lt;br/&gt;- firstName: String&lt;br/&gt;- lastName: String&lt;br/&gt;- phone: String&lt;br/&gt;- zip: String&lt;/p&gt;&lt;hr size=&quot;1&quot;/&gt;&lt;p style=&quot;margin:0 0 0 4px;line-height:1.6;&quot;&gt;+ builder(): PersonEntityBuilder&lt;/p&gt;&lt;hr size=&quot;1&quot;/&gt;&lt;p style=&quot;margin:0 0 0 4px;line-height:1.6;&quot;&gt; address: String&lt;br/&gt; city: String&lt;br/&gt; email: String&lt;br/&gt; firstName: String&lt;br/&gt; lastName: String&lt;br/&gt; phone: String&lt;br/&gt; zip: String&lt;/p&gt;" style="verticalAlign=top;align=left;overflow=fill;fontSize=14;fontFamily=Helvetica;html=1;rounded=0;shadow=0;comic=0;labelBackgroundColor=none;strokeWidth=1;" parent="1" vertex="1">
          <mxGeometry x="2653" y="1426" width="427" height="448" as="geometry" />
        </mxCell>
        <mxCell id="node7" value="&lt;p style=&quot;margin:0px;margin-top:4px;text-align:center;&quot;&gt;&lt;b&gt;PersonEntityBuilder&lt;/b&gt;&lt;/p&gt;&lt;hr size=&quot;1&quot;/&gt;&lt;p style=&quot;margin:0 0 0 4px;line-height:1.6;&quot;&gt;~ PersonEntityBuilder(): &lt;/p&gt;&lt;hr size=&quot;1&quot;/&gt;&lt;p style=&quot;margin:0 0 0 4px;line-height:1.6;&quot;&gt;+ address(String): PersonEntityBuilder&lt;br/&gt;+ build(): PersonEntity&lt;br/&gt;+ city(String): PersonEntityBuilder&lt;br/&gt;+ email(String): PersonEntityBuilder&lt;br/&gt;+ firstName(String): PersonEntityBuilder&lt;br/&gt;+ lastName(String): PersonEntityBuilder&lt;br/&gt;+ phone(String): PersonEntityBuilder&lt;br/&gt;+ toString(): String&lt;br/&gt;+ zip(String): PersonEntityBuilder&lt;/p&gt;" style="verticalAlign=top;align=left;overflow=fill;fontSize=14;fontFamily=Helvetica;html=1;rounded=0;shadow=0;comic=0;labelBackgroundColor=none;strokeWidth=1;" parent="1" vertex="1">
          <mxGeometry x="1660" y="1719" width="280" height="280" as="geometry" />
        </mxCell>
        <mxCell id="node11" value="&lt;p style=&quot;margin:0px;margin-top:4px;text-align:center;&quot;&gt;&lt;b&gt;PersonInfoController&lt;/b&gt;&lt;/p&gt;&lt;hr size=&quot;1&quot;/&gt;&lt;p style=&quot;margin:0 0 0 4px;line-height:1.6;&quot;&gt;+ PersonInfoController(PersonService, PersonMapper): &lt;/p&gt;&lt;hr size=&quot;1&quot;/&gt;&lt;p style=&quot;margin:0 0 0 4px;line-height:1.6;&quot;&gt;+ findPersonInfos(String, String): ResponseEntity&amp;lt;PersonWithoutPhoneDto&amp;gt;&lt;/p&gt;" style="verticalAlign=top;align=left;overflow=fill;fontSize=14;fontFamily=Helvetica;html=1;rounded=0;shadow=0;comic=0;labelBackgroundColor=none;strokeWidth=1;" parent="1" vertex="1">
          <mxGeometry x="-645" y="35" width="504" height="95" as="geometry" />
        </mxCell>
        <mxCell id="node6" value="&lt;p style=&quot;margin:0px;margin-top:4px;text-align:center;&quot;&gt;&lt;i&gt;&amp;lt;&amp;lt;interface&amp;gt;&amp;gt;&lt;/i&gt;&lt;br/&gt;&lt;b&gt;PersonRepository&lt;/b&gt;&lt;/p&gt;&lt;hr size=&quot;1&quot;/&gt;&lt;p style=&quot;margin:0 0 0 4px;line-height:1.6;&quot;&gt;+ delete(String, String): boolean&lt;br/&gt;+ findAll(): List&amp;lt;PersonDto&amp;gt;&lt;br/&gt;+ findEmailsByCity(String): TreeSet&amp;lt;String&amp;gt;&lt;br/&gt;+ findPersonByName(String, String): PersonDto&lt;br/&gt;+ findPersonsByAddress(String): List&amp;lt;PersonDto&amp;gt;&lt;br/&gt;+ findPersonsByStationNumber(int): PersonsWithAgeRepartitionDto&lt;br/&gt;+ findPersonsPhoneNumbersByAddresses(List&amp;lt;String&amp;gt;): TreeSet&amp;lt;String&amp;gt;&lt;br/&gt;+ save(PersonDto): PersonDto&lt;br/&gt;+ update(PersonDto): PersonLiteDto&lt;/p&gt;" style="verticalAlign=top;align=left;overflow=fill;fontSize=14;fontFamily=Helvetica;html=1;rounded=0;shadow=0;comic=0;labelBackgroundColor=none;strokeWidth=1;" parent="1" vertex="1">
          <mxGeometry x="1142" y="1012" width="490" height="255" as="geometry" />
        </mxCell>
        <mxCell id="node9" value="&lt;p style=&quot;margin:0px;margin-top:4px;text-align:center;&quot;&gt;&lt;b&gt;PersonRepositoryImpl&lt;/b&gt;&lt;/p&gt;&lt;hr size=&quot;1&quot;/&gt;&lt;p style=&quot;margin:0 0 0 4px;line-height:1.6;&quot;&gt;+ PersonRepositoryImpl(PersonMapper): &lt;/p&gt;&lt;hr size=&quot;1&quot;/&gt;&lt;p style=&quot;margin:0 0 0 4px;line-height:1.6;&quot;&gt;+ delete(String, String): boolean&lt;br/&gt;+ findAll(): List&amp;lt;PersonDto&amp;gt;&lt;br/&gt;+ findEmailsByCity(String): TreeSet&amp;lt;String&amp;gt;&lt;br/&gt;+ findPersonByName(String, String): PersonDto&lt;br/&gt;+ findPersonsByAddress(String): List&amp;lt;PersonDto&amp;gt;&lt;br/&gt;+ findPersonsByStationNumber(int): PersonsWithAgeRepartitionDto&lt;br/&gt;+ findPersonsPhoneNumbersByAddresses(List&amp;lt;String&amp;gt;): TreeSet&amp;lt;String&amp;gt;&lt;br/&gt;+ save(PersonDto): PersonDto&lt;br/&gt;+ update(PersonDto): PersonLiteDto&lt;/p&gt;" style="verticalAlign=top;align=left;overflow=fill;fontSize=14;fontFamily=Helvetica;html=1;rounded=0;shadow=0;comic=0;labelBackgroundColor=none;strokeWidth=1;" parent="1" vertex="1">
          <mxGeometry x="62" y="819" width="490" height="280" as="geometry" />
        </mxCell>
        <mxCell id="node16" value="&lt;p style=&quot;margin:0px;margin-top:4px;text-align:center;&quot;&gt;&lt;i&gt;&amp;lt;&amp;lt;interface&amp;gt;&amp;gt;&lt;/i&gt;&lt;br/&gt;&lt;b&gt;PersonService&lt;/b&gt;&lt;/p&gt;&lt;hr size=&quot;1&quot;/&gt;&lt;p style=&quot;margin:0 0 0 4px;line-height:1.6;&quot;&gt;+ delete(String, String): GenericResponseDto&lt;br/&gt;+ findAll(): List&amp;lt;PersonDto&amp;gt;&lt;br/&gt;+ findChildrenByAddress(String): List&amp;lt;ChildDto&amp;gt;&lt;br/&gt;+ findPerson(String, String): PersonExtendedDto&lt;br/&gt;+ findPersons(String): List&amp;lt;PersonExtendedDto&amp;gt;&lt;br/&gt;+ findPersonsCoveredByFireStation(int): PersonsWithAgeRepartitionDto&lt;br/&gt;+ findPersonsEmail(String): TreeSet&amp;lt;String&amp;gt;&lt;br/&gt;+ findPersonsPhoneNumberByStation(int): TreeSet&amp;lt;String&amp;gt;&lt;br/&gt;+ save(PersonDto): PersonDto&lt;br/&gt;+ update(PersonDto): PersonLiteDto&lt;/p&gt;" style="verticalAlign=top;align=left;overflow=fill;fontSize=14;fontFamily=Helvetica;html=1;rounded=0;shadow=0;comic=0;labelBackgroundColor=none;strokeWidth=1;" parent="1" vertex="1">
          <mxGeometry x="1149" y="420" width="477" height="279" as="geometry" />
        </mxCell>
        <mxCell id="node10" value="&lt;p style=&quot;margin:0px;margin-top:4px;text-align:center;&quot;&gt;&lt;b&gt;PersonServiceImpl&lt;/b&gt;&lt;/p&gt;&lt;hr size=&quot;1&quot;/&gt;&lt;p style=&quot;margin:0 0 0 4px;line-height:1.6;&quot;&gt;+ PersonServiceImpl(PersonRepository, FireStationRepository, MedicalRecordRepository, PersonMapper, MedicalRecordMapper): &lt;/p&gt;&lt;hr size=&quot;1&quot;/&gt;&lt;p style=&quot;margin:0 0 0 4px;line-height:1.6;&quot;&gt;+ calculateAge(MedicalRecordDto): long&lt;br/&gt;+ delete(String, String): GenericResponseDto&lt;br/&gt;+ findAll(): List&amp;lt;PersonDto&amp;gt;&lt;br/&gt;+ findChildrenByAddress(String): List&amp;lt;ChildDto&amp;gt;&lt;br/&gt;+ findMedicalRecordByPerson(String, String, List&amp;lt;MedicalRecordDto&amp;gt;): MedicalRecordDto&lt;br/&gt;+ findPerson(String, String): PersonExtendedDto&lt;br/&gt;+ findPersons(String): List&amp;lt;PersonExtendedDto&amp;gt;&lt;br/&gt;+ findPersonsCoveredByFireStation(int): PersonsWithAgeRepartitionDto&lt;br/&gt;+ findPersonsEmail(String): TreeSet&amp;lt;String&amp;gt;&lt;br/&gt;+ findPersonsPhoneNumberByStation(int): TreeSet&amp;lt;String&amp;gt;&lt;br/&gt;+ save(PersonDto): PersonDto&lt;br/&gt;+ update(PersonDto): PersonLiteDto&lt;/p&gt;" style="verticalAlign=top;align=left;overflow=fill;fontSize=14;fontFamily=Helvetica;html=1;rounded=0;shadow=0;comic=0;labelBackgroundColor=none;strokeWidth=1;" parent="1" vertex="1">
          <mxGeometry x="-1060" y="530" width="866" height="352" as="geometry" />
        </mxCell>
        <mxCell id="node26" value="&lt;p style=&quot;margin:0px;margin-top:4px;text-align:center;&quot;&gt;&lt;b&gt;PhoneAlertController&lt;/b&gt;&lt;/p&gt;&lt;hr size=&quot;1&quot;/&gt;&lt;p style=&quot;margin:0 0 0 4px;line-height:1.6;&quot;&gt;+ PhoneAlertController(PersonService): &lt;/p&gt;&lt;hr size=&quot;1&quot;/&gt;&lt;p style=&quot;margin:0 0 0 4px;line-height:1.6;&quot;&gt;+ findPersonsPhoneNumbers(int): ResponseEntity&amp;lt;TreeSet&amp;lt;String&amp;gt;&amp;gt;&lt;/p&gt;" style="verticalAlign=top;align=left;overflow=fill;fontSize=14;fontFamily=Helvetica;html=1;rounded=0;shadow=0;comic=0;labelBackgroundColor=none;strokeWidth=1;" parent="1" vertex="1">
          <mxGeometry x="-624" y="-165" width="462" height="95" as="geometry" />
        </mxCell>
        <mxCell id="edge18" value="" style="html=1;rounded=1;edgeStyle=orthogonalEdgeStyle;dashed=0;startArrow=diamondThinstartSize=12;endArrow=openThin;endSize=12;strokeColor=#595959;exitX=1.000;exitY=0.500;exitDx=0;exitDy=0;entryX=0.000;entryY=0.250;entryDx=0;entryDy=0;" parent="1" source="node25" target="node16" edge="1">
          <mxGeometry width="50" height="50" relative="1" as="geometry">
            <Array as="points">
              <mxPoint x="1107" y="139" />
              <mxPoint x="1107" y="379" />
              <mxPoint x="1127" y="379" />
              <mxPoint x="1127" y="489" />
            </Array>
          </mxGeometry>
        </mxCell>
        <mxCell id="label112" value="1" style="edgeLabel;resizable=0;html=1;align=left;verticalAlign=top;strokeColor=default;" parent="edge18" vertex="1" connectable="0">
          <mxGeometry x="541" y="110" as="geometry" />
        </mxCell>
        <mxCell id="edge19" value="" style="html=1;rounded=1;edgeStyle=orthogonalEdgeStyle;dashed=0;startArrow=diamondThinstartSize=12;endArrow=openThin;endSize=12;strokeColor=#595959;exitX=1.000;exitY=0.500;exitDx=0;exitDy=0;entryX=0.000;entryY=0.250;entryDx=0;entryDy=0;" parent="1" source="node18" target="node16" edge="1">
          <mxGeometry width="50" height="50" relative="1" as="geometry">
            <Array as="points">
              <mxPoint x="1107" y="199" />
              <mxPoint x="1107" y="379" />
              <mxPoint x="1127" y="379" />
              <mxPoint x="1127" y="489" />
            </Array>
          </mxGeometry>
        </mxCell>
        <mxCell id="label118" value="1" style="edgeLabel;resizable=0;html=1;align=left;verticalAlign=top;strokeColor=default;" parent="edge19" vertex="1" connectable="0">
          <mxGeometry x="-199" y="170" as="geometry" />
        </mxCell>
        <mxCell id="edge9" value="" style="html=1;rounded=1;edgeStyle=orthogonalEdgeStyle;dashed=0;startArrow=diamondThinstartSize=12;endArrow=openThin;endSize=12;strokeColor=#595959;exitX=1.000;exitY=0.500;exitDx=0;exitDy=0;entryX=0.000;entryY=0.250;entryDx=0;entryDy=0;" parent="1" source="node13" target="node21" edge="1">
          <mxGeometry width="50" height="50" relative="1" as="geometry">
            <Array as="points">
              <mxPoint x="2607" y="1299" />
              <mxPoint x="2607" y="1313" />
            </Array>
          </mxGeometry>
        </mxCell>
        <mxCell id="label58" value="*" style="edgeLabel;resizable=0;html=1;align=left;verticalAlign=top;strokeColor=default;" parent="edge9" vertex="1" connectable="0">
          <mxGeometry x="3120" y="1290" as="geometry" />
        </mxCell>
        <mxCell id="edge23" value="" style="html=1;rounded=1;edgeStyle=orthogonalEdgeStyle;dashed=0;startArrow=diamondThinstartSize=12;endArrow=openThin;endSize=12;strokeColor=#595959;exitX=1.000;exitY=0.500;exitDx=0;exitDy=0;entryX=0.000;entryY=0.750;entryDx=0;entryDy=0;" parent="1" source="node13" target="node1" edge="1">
          <mxGeometry width="50" height="50" relative="1" as="geometry">
            <Array as="points">
              <mxPoint x="2607" y="1299" />
              <mxPoint x="2607" y="1202" />
            </Array>
          </mxGeometry>
        </mxCell>
        <mxCell id="label142" value="*" style="edgeLabel;resizable=0;html=1;align=left;verticalAlign=top;strokeColor=default;" parent="edge23" vertex="1" connectable="0">
          <mxGeometry x="2620" y="1179" as="geometry" />
        </mxCell>
        <mxCell id="edge22" value="" style="html=1;rounded=1;edgeStyle=orthogonalEdgeStyle;dashed=0;startArrow=diamondThinstartSize=12;endArrow=openThin;endSize=12;strokeColor=#595959;exitX=1.000;exitY=0.500;exitDx=0;exitDy=0;" parent="1" source="node13" target="node20" edge="1">
          <mxGeometry width="50" height="50" relative="1" as="geometry">
            <Array as="points">
              <mxPoint x="2441" y="1299" />
              <mxPoint x="2567" y="1299" />
              <mxPoint x="2567" y="1533" />
            </Array>
          </mxGeometry>
        </mxCell>
        <mxCell id="label132" value="1" style="edgeLabel;resizable=0;html=1;align=left;verticalAlign=top;strokeColor=default;" parent="edge22" vertex="1" connectable="0">
          <mxGeometry x="2456" y="1270" as="geometry" />
        </mxCell>
        <mxCell id="edge10" value="" style="html=1;rounded=1;edgeStyle=orthogonalEdgeStyle;dashed=0;startArrow=diamondThinstartSize=12;endArrow=openThin;endSize=12;strokeColor=#595959;exitX=1.000;exitY=0.500;exitDx=0;exitDy=0;entryX=0.000;entryY=0.250;entryDx=0;entryDy=0;" parent="1" source="node14" target="node27" edge="1">
          <mxGeometry width="50" height="50" relative="1" as="geometry">
            <Array as="points">
              <mxPoint x="767" y="499" />
              <mxPoint x="767" y="913" />
            </Array>
          </mxGeometry>
        </mxCell>
        <mxCell id="label64" value="1" style="edgeLabel;resizable=0;html=1;align=left;verticalAlign=top;strokeColor=default;" parent="edge10" vertex="1" connectable="0">
          <mxGeometry x="650" y="472" as="geometry" />
        </mxCell>
        <mxCell id="edge21" value="" style="html=1;rounded=1;edgeStyle=orthogonalEdgeStyle;dashed=0;startArrow=diamondThinstartSize=12;endArrow=openThin;endSize=12;strokeColor=#595959;exitX=1.000;exitY=0.500;exitDx=0;exitDy=0;entryX=0.000;entryY=0.250;entryDx=0;entryDy=0;" parent="1" source="node14" target="node16" edge="1">
          <mxGeometry width="50" height="50" relative="1" as="geometry">
            <Array as="points">
              <mxPoint x="635" y="460" />
              <mxPoint x="1127" y="460" />
              <mxPoint x="1127" y="490" />
            </Array>
          </mxGeometry>
        </mxCell>
        <mxCell id="edge15" value="" style="html=1;rounded=1;edgeStyle=orthogonalEdgeStyle;dashed=0;startArrow=diamondThinstartSize=12;endArrow=openThin;endSize=12;strokeColor=#595959;exitX=1.000;exitY=0.500;exitDx=0;exitDy=0;entryX=0.000;entryY=0.250;entryDx=0;entryDy=0;" parent="1" source="node0" target="node27" edge="1">
          <mxGeometry width="50" height="50" relative="1" as="geometry">
            <Array as="points">
              <mxPoint x="750" y="380" />
              <mxPoint x="750" y="499" />
              <mxPoint x="767" y="499" />
              <mxPoint x="767" y="914" />
            </Array>
          </mxGeometry>
        </mxCell>
        <mxCell id="label90" value="1" style="edgeLabel;resizable=0;html=1;align=left;verticalAlign=top;strokeColor=default;" parent="edge15" vertex="1" connectable="0">
          <mxGeometry x="750" y="880" as="geometry" />
        </mxCell>
        <mxCell id="label94" value="1" style="edgeLabel;resizable=0;html=1;align=left;verticalAlign=top;strokeColor=default;" parent="edge15" vertex="1" connectable="0">
          <mxGeometry x="-93" y="350" as="geometry" />
        </mxCell>
        <mxCell id="edge20" value="" style="html=1;rounded=1;edgeStyle=orthogonalEdgeStyle;dashed=0;startArrow=diamondThinstartSize=12;endArrow=openThin;endSize=12;strokeColor=#595959;exitX=1.000;exitY=0.500;exitDx=0;exitDy=0;entryX=0.000;entryY=0.250;entryDx=0;entryDy=0;" parent="1" source="node0" target="node16" edge="1">
          <mxGeometry width="50" height="50" relative="1" as="geometry">
            <Array as="points">
              <mxPoint x="1127" y="379" />
              <mxPoint x="1127" y="489" />
            </Array>
          </mxGeometry>
        </mxCell>
        <mxCell id="edge4" value="" style="html=1;rounded=1;edgeStyle=orthogonalEdgeStyle;dashed=0;startArrow=circlePlus;startFill=0;endArrow=none;strokeColor=#820000;exitX=1.000;exitY=0.500;exitDx=0;exitDy=0;entryX=0.000;entryY=0.750;entryDx=0;entryDy=0;" parent="1" source="node12" target="node21" edge="1">
          <mxGeometry width="50" height="50" relative="1" as="geometry">
            <Array as="points">
              <mxPoint x="1954" y="1370" />
              <mxPoint x="3120" y="1370" />
              <mxPoint x="3120" y="1407" />
            </Array>
          </mxGeometry>
        </mxCell>
        <mxCell id="edge5" value="" style="html=1;rounded=1;edgeStyle=orthogonalEdgeStyle;dashed=1;startArrow=none;endArrow=block;endSize=12;strokeColor=#008200;exitX=1.000;exitY=0.500;exitDx=0;exitDy=0;entryX=0.000;entryY=0.750;entryDx=0;entryDy=0;" parent="1" source="node22" target="node4" edge="1">
          <mxGeometry width="50" height="50" relative="1" as="geometry">
            <Array as="points">
              <mxPoint x="796" y="1359" />
            </Array>
          </mxGeometry>
        </mxCell>
        <mxCell id="edge11" value="" style="html=1;rounded=1;edgeStyle=orthogonalEdgeStyle;dashed=0;startArrow=diamondThinstartSize=12;endArrow=openThin;endSize=12;strokeColor=#595959;exitX=1.000;exitY=0.750;exitDx=0;exitDy=0;entryX=0.000;entryY=0.250;entryDx=0;entryDy=0;" parent="1" source="node3" target="node4" edge="1">
          <mxGeometry width="50" height="50" relative="1" as="geometry">
            <Array as="points">
              <mxPoint x="-226" y="1230" />
              <mxPoint x="670" y="1230" />
              <mxPoint x="670" y="1274" />
            </Array>
          </mxGeometry>
        </mxCell>
        <mxCell id="label66" value="1" style="edgeLabel;resizable=0;html=1;align=left;verticalAlign=top;strokeColor=default;" parent="edge11" vertex="1" connectable="0">
          <mxGeometry x="760" y="1250" as="geometry" />
        </mxCell>
        <mxCell id="label70" value="1" style="edgeLabel;resizable=0;html=1;align=left;verticalAlign=top;strokeColor=default;" parent="edge11" vertex="1" connectable="0">
          <mxGeometry x="-221" y="1200" as="geometry" />
        </mxCell>
        <mxCell id="label71" value="" style="edgeLabel;resizable=0;html=1;align=left;verticalAlign=top;strokeColor=default;" parent="edge11" vertex="1" connectable="0">
          <mxGeometry x="740" y="1280" as="geometry" />
        </mxCell>
        <mxCell id="edge7" value="" style="html=1;rounded=1;edgeStyle=orthogonalEdgeStyle;dashed=1;startArrow=none;endArrow=block;endSize=12;strokeColor=#008200;exitX=1.000;exitY=0.250;exitDx=0;exitDy=0;entryX=0.000;entryY=0.750;entryDx=0;entryDy=0;" parent="1" source="node3" target="node27" edge="1">
          <mxGeometry width="50" height="50" relative="1" as="geometry">
            <Array as="points">
              <mxPoint x="587" y="1127" />
              <mxPoint x="587" y="1005" />
            </Array>
          </mxGeometry>
        </mxCell>
        <mxCell id="edge14" value="" style="html=1;rounded=1;edgeStyle=orthogonalEdgeStyle;dashed=0;startArrow=diamondThinstartSize=12;endArrow=openThin;endSize=12;strokeColor=#595959;exitX=1.000;exitY=0.500;exitDx=0;exitDy=0;entryX=0.000;entryY=0.250;entryDx=0;entryDy=0;" parent="1" source="node5" target="node27" edge="1">
          <mxGeometry width="50" height="50" relative="1" as="geometry">
            <Array as="points">
              <mxPoint x="678" y="259" />
              <mxPoint x="750" y="259" />
              <mxPoint x="750" y="499" />
              <mxPoint x="767" y="499" />
              <mxPoint x="767" y="914" />
            </Array>
          </mxGeometry>
        </mxCell>
        <mxCell id="label88" value="1" style="edgeLabel;resizable=0;html=1;align=left;verticalAlign=top;strokeColor=default;" parent="edge14" vertex="1" connectable="0">
          <mxGeometry x="690" y="230" as="geometry" />
        </mxCell>
        <mxCell id="edge29" value="" style="html=1;rounded=1;edgeStyle=orthogonalEdgeStyle;dashed=0;startArrow=diamondThinstartSize=12;endArrow=openThin;endSize=12;strokeColor=#595959;exitX=1.000;exitY=0.500;exitDx=0;exitDy=0;entryX=0.000;entryY=0.250;entryDx=0;entryDy=0;" parent="1" source="node5" target="node16" edge="1">
          <mxGeometry width="50" height="50" relative="1" as="geometry">
            <Array as="points">
              <mxPoint x="678" y="259" />
              <mxPoint x="1107" y="259" />
              <mxPoint x="1107" y="379" />
              <mxPoint x="1127" y="379" />
              <mxPoint x="1127" y="490" />
            </Array>
          </mxGeometry>
        </mxCell>
        <mxCell id="edge26" value="" style="html=1;rounded=1;edgeStyle=orthogonalEdgeStyle;dashed=0;startArrow=diamondThinstartSize=12;endArrow=openThin;endSize=12;strokeColor=#595959;exitX=1.000;exitY=0.500;exitDx=0;exitDy=0;" parent="1" source="node28" edge="1">
          <mxGeometry width="50" height="50" relative="1" as="geometry">
            <Array as="points">
              <mxPoint x="2539" y="1533" />
              <mxPoint x="2627" y="1533" />
            </Array>
            <mxPoint x="2653" y="1533" as="targetPoint" />
          </mxGeometry>
        </mxCell>
        <mxCell id="label156" value="1" style="edgeLabel;resizable=0;html=1;align=left;verticalAlign=top;strokeColor=default;" parent="edge26" vertex="1" connectable="0">
          <mxGeometry x="2544" y="1510" as="geometry" />
        </mxCell>
        <mxCell id="label160" value="*" style="edgeLabel;resizable=0;html=1;align=left;verticalAlign=top;strokeColor=default;" parent="edge26" vertex="1" connectable="0">
          <mxGeometry x="2630" y="1510" as="geometry" />
        </mxCell>
        <mxCell id="edge17" value="" style="html=1;rounded=1;edgeStyle=orthogonalEdgeStyle;dashed=0;startArrow=diamondThinstartSize=12;endArrow=openThin;endSize=12;strokeColor=#595959;exitX=1.000;exitY=0.500;exitDx=0;exitDy=0;" parent="1" source="node24" target="node17" edge="1">
          <mxGeometry width="50" height="50" relative="1" as="geometry">
            <Array as="points">
              <mxPoint x="560" y="1799" />
              <mxPoint x="560" y="1799" />
            </Array>
          </mxGeometry>
        </mxCell>
        <mxCell id="label102" value="1" style="edgeLabel;resizable=0;html=1;align=left;verticalAlign=top;strokeColor=default;" parent="edge17" vertex="1" connectable="0">
          <mxGeometry x="740" y="1770" as="geometry" />
        </mxCell>
        <mxCell id="label106" value="1" style="edgeLabel;resizable=0;html=1;align=left;verticalAlign=top;strokeColor=default;" parent="edge17" vertex="1" connectable="0">
          <mxGeometry x="-119" y="1770" as="geometry" />
        </mxCell>
        <mxCell id="edge1" value="" style="html=1;rounded=1;edgeStyle=orthogonalEdgeStyle;dashed=0;startArrow=circlePlus;startFill=0;endArrow=none;strokeColor=#820000;exitX=1.000;exitY=0.500;exitDx=0;exitDy=0;entryX=0.000;entryY=0.250;entryDx=0;entryDy=0;" parent="1" edge="1">
          <mxGeometry width="50" height="50" relative="1" as="geometry">
            <Array as="points">
              <mxPoint x="2079" y="1040.75" />
              <mxPoint x="2645" y="1040.75" />
            </Array>
            <mxPoint x="2079" y="1039.75" as="sourcePoint" />
            <mxPoint x="2645" y="1037.25" as="targetPoint" />
          </mxGeometry>
        </mxCell>
        <mxCell id="edge6" value="" style="html=1;rounded=1;edgeStyle=orthogonalEdgeStyle;dashed=1;startArrow=none;endArrow=block;endSize=12;strokeColor=#008200;exitX=1.000;exitY=0.500;exitDx=0;exitDy=0;entryX=0.000;entryY=0.750;entryDx=0;entryDy=0;" parent="1" source="node15" target="node19" edge="1">
          <mxGeometry width="50" height="50" relative="1" as="geometry">
            <Array as="points">
              <mxPoint x="607" y="1679" />
              <mxPoint x="607" y="1605" />
            </Array>
          </mxGeometry>
        </mxCell>
        <mxCell id="edge13" value="" style="html=1;rounded=1;edgeStyle=orthogonalEdgeStyle;dashed=0;startArrow=diamondThinstartSize=12;endArrow=openThin;endSize=12;strokeColor=#595959;exitX=1.000;exitY=0.250;exitDx=0;exitDy=0;entryX=0.000;entryY=0.250;entryDx=0;entryDy=0;" parent="1" source="node8" target="node19" edge="1">
          <mxGeometry width="50" height="50" relative="1" as="geometry">
            <Array as="points">
              <mxPoint x="1107" y="1479" />
              <mxPoint x="1107" y="1513" />
            </Array>
          </mxGeometry>
        </mxCell>
        <mxCell id="label82" value="1" style="edgeLabel;resizable=0;html=1;align=left;verticalAlign=top;strokeColor=default;" parent="edge13" vertex="1" connectable="0">
          <mxGeometry x="-196" y="1450" as="geometry" />
        </mxCell>
        <mxCell id="edge2" value="" style="html=1;rounded=1;edgeStyle=orthogonalEdgeStyle;dashed=1;startArrow=none;endArrow=block;endSize=12;strokeColor=#008200;exitX=1.000;exitY=0.750;exitDx=0;exitDy=0;entryX=-0.001;entryY=0.216;entryDx=0;entryDy=0;entryPerimeter=0;" parent="1" target="node17" edge="1">
          <mxGeometry width="50" height="50" relative="1" as="geometry">
            <Array as="points">
              <mxPoint x="-203" y="1549" />
              <mxPoint x="585" y="1549" />
              <mxPoint x="585" y="1724" />
              <mxPoint x="779" y="1724" />
              <mxPoint x="779" y="1729" />
            </Array>
            <mxPoint x="-203" y="1558" as="sourcePoint" />
            <mxPoint x="781" y="1729" as="targetPoint" />
          </mxGeometry>
        </mxCell>
        <mxCell id="edge27" value="" style="html=1;rounded=1;edgeStyle=orthogonalEdgeStyle;dashed=0;startArrow=diamondThinstartSize=12;endArrow=openThin;endSize=12;strokeColor=#595959;exitX=1.000;exitY=0.500;exitDx=0;exitDy=0;entryX=0.000;entryY=0.250;entryDx=0;entryDy=0;" parent="1" source="node23" target="node16" edge="1">
          <mxGeometry width="50" height="50" relative="1" as="geometry">
            <Array as="points">
              <mxPoint x="1107" y="-21" />
              <mxPoint x="1107" y="379" />
              <mxPoint x="1127" y="379" />
              <mxPoint x="1127" y="489" />
            </Array>
          </mxGeometry>
        </mxCell>
        <mxCell id="label166" value="1" style="edgeLabel;resizable=0;html=1;align=left;verticalAlign=top;strokeColor=default;" parent="edge27" vertex="1" connectable="0">
          <mxGeometry x="552" y="-50" as="geometry" />
        </mxCell>
        <mxCell id="edge3" value="" style="html=1;rounded=1;edgeStyle=orthogonalEdgeStyle;dashed=0;startArrow=circlePlus;startFill=0;endArrow=none;strokeColor=#820000;exitX=1.000;exitY=0.500;exitDx=0;exitDy=0;entryX=0.000;entryY=0.750;entryDx=0;entryDy=0;" parent="1" source="node7" target="node20" edge="1">
          <mxGeometry width="50" height="50" relative="1" as="geometry">
            <Array as="points">
              <mxPoint x="1940" y="1850" />
              <mxPoint x="2250" y="1850" />
              <mxPoint x="2250" y="1745" />
            </Array>
          </mxGeometry>
        </mxCell>
        <mxCell id="edge24" value="" style="html=1;rounded=1;edgeStyle=orthogonalEdgeStyle;dashed=0;startArrow=diamondThinstartSize=12;endArrow=openThin;endSize=12;strokeColor=#595959;exitX=1.000;exitY=0.500;exitDx=0;exitDy=0;entryX=0.000;entryY=0.250;entryDx=0;entryDy=0;" parent="1" source="node11" target="node16" edge="1">
          <mxGeometry width="50" height="50" relative="1" as="geometry">
            <Array as="points">
              <mxPoint x="1107" y="79" />
              <mxPoint x="1107" y="379" />
              <mxPoint x="1127" y="379" />
              <mxPoint x="1127" y="489" />
            </Array>
          </mxGeometry>
        </mxCell>
        <mxCell id="label144" value="1" style="edgeLabel;resizable=0;html=1;align=left;verticalAlign=top;strokeColor=default;" parent="edge24" vertex="1" connectable="0">
          <mxGeometry x="1115" y="462" as="geometry" />
        </mxCell>
        <mxCell id="label148" value="1" style="edgeLabel;resizable=0;html=1;align=left;verticalAlign=top;strokeColor=default;" parent="edge24" vertex="1" connectable="0">
          <mxGeometry x="-136" y="50" as="geometry" />
        </mxCell>
        <mxCell id="edge0" value="" style="html=1;rounded=1;edgeStyle=orthogonalEdgeStyle;dashed=1;startArrow=none;endArrow=block;endSize=12;strokeColor=#008200;exitX=1.000;exitY=0.500;exitDx=0;exitDy=0;entryX=0.000;entryY=0.250;entryDx=0;entryDy=0;" parent="1" source="node9" target="node6" edge="1">
          <mxGeometry width="50" height="50" relative="1" as="geometry">
            <Array as="points">
              <mxPoint x="607" y="959" />
              <mxPoint x="607" y="1075" />
            </Array>
          </mxGeometry>
        </mxCell>
        <mxCell id="edge16" value="" style="html=1;rounded=1;edgeStyle=orthogonalEdgeStyle;dashed=0;startArrow=diamondThinstartSize=12;endArrow=openThin;endSize=12;strokeColor=#595959;exitX=1.000;exitY=0.750;exitDx=0;exitDy=0;entryX=0.000;entryY=0.250;entryDx=0;entryDy=0;" parent="1" source="node10" target="node4" edge="1">
          <mxGeometry width="50" height="50" relative="1" as="geometry">
            <Array as="points">
              <mxPoint x="-194" y="787" />
              <mxPoint x="567" y="787" />
              <mxPoint x="567" y="1199" />
              <mxPoint x="730" y="1199" />
              <mxPoint x="730" y="1274" />
            </Array>
          </mxGeometry>
        </mxCell>
        <mxCell id="label100" value="1" style="edgeLabel;resizable=0;html=1;align=left;verticalAlign=top;strokeColor=default;" parent="edge16" vertex="1" connectable="0">
          <mxGeometry x="-180" y="760" as="geometry" />
        </mxCell>
        <mxCell id="label101" value="" style="edgeLabel;resizable=0;html=1;align=left;verticalAlign=top;strokeColor=default;" parent="edge16" vertex="1" connectable="0">
          <mxGeometry x="760" y="1200" as="geometry" />
        </mxCell>
        <mxCell id="edge12" value="" style="html=1;rounded=1;edgeStyle=orthogonalEdgeStyle;dashed=0;startArrow=diamondThinstartSize=12;endArrow=openThin;endSize=12;strokeColor=#595959;exitX=1.000;exitY=0.750;exitDx=0;exitDy=0;entryX=0.000;entryY=0.250;entryDx=0;entryDy=0;" parent="1" source="node10" target="node19" edge="1">
          <mxGeometry width="50" height="50" relative="1" as="geometry">
            <Array as="points">
              <mxPoint x="-194" y="787" />
              <mxPoint x="567" y="787" />
              <mxPoint x="567" y="1199" />
              <mxPoint x="730" y="1199" />
              <mxPoint x="730" y="1479" />
              <mxPoint x="1107" y="1479" />
              <mxPoint x="1107" y="1514" />
            </Array>
          </mxGeometry>
        </mxCell>
        <mxCell id="label72" value="1" style="edgeLabel;resizable=0;html=1;align=left;verticalAlign=top;strokeColor=default;" parent="edge12" vertex="1" connectable="0">
          <mxGeometry x="1090" y="1495" as="geometry" />
        </mxCell>
        <mxCell id="edge25" value="" style="html=1;rounded=1;edgeStyle=orthogonalEdgeStyle;dashed=0;startArrow=diamondThinstartSize=12;endArrow=openThin;endSize=12;strokeColor=#595959;exitX=1.000;exitY=0.750;exitDx=0;exitDy=0;entryX=0.000;entryY=0.750;entryDx=0;entryDy=0;" parent="1" source="node10" target="node6" edge="1">
          <mxGeometry width="50" height="50" relative="1" as="geometry">
            <Array as="points">
              <mxPoint x="-194" y="787" />
              <mxPoint x="567" y="787" />
              <mxPoint x="567" y="1200" />
              <mxPoint x="1142" y="1200" />
            </Array>
          </mxGeometry>
        </mxCell>
        <mxCell id="label150" value="1" style="edgeLabel;resizable=0;html=1;align=left;verticalAlign=top;strokeColor=default;" parent="edge25" vertex="1" connectable="0">
          <mxGeometry x="1110" y="1170" as="geometry" />
        </mxCell>
        <mxCell id="label155" value="" style="edgeLabel;resizable=0;html=1;align=left;verticalAlign=top;strokeColor=default;" parent="edge25" vertex="1" connectable="0">
          <mxGeometry x="1050" y="1150" as="geometry" />
        </mxCell>
        <mxCell id="edge8" value="" style="html=1;rounded=1;edgeStyle=orthogonalEdgeStyle;dashed=1;startArrow=none;endArrow=block;endSize=12;strokeColor=#008200;exitX=1.000;exitY=0.250;exitDx=0;exitDy=0;entryX=0.000;entryY=0.750;entryDx=0;entryDy=0;" parent="1" source="node10" target="node16" edge="1">
          <mxGeometry width="50" height="50" relative="1" as="geometry">
            <Array as="points">
              <mxPoint x="-93" y="611" />
              <mxPoint x="-93" y="629" />
            </Array>
          </mxGeometry>
        </mxCell>
        <mxCell id="edge28" value="" style="html=1;rounded=1;edgeStyle=orthogonalEdgeStyle;dashed=0;startArrow=diamondThinstartSize=12;endArrow=openThin;endSize=12;strokeColor=#595959;exitX=1.000;exitY=0.500;exitDx=0;exitDy=0;entryX=0.000;entryY=0.250;entryDx=0;entryDy=0;" parent="1" source="node26" target="node16" edge="1">
          <mxGeometry width="50" height="50" relative="1" as="geometry">
            <Array as="points">
              <mxPoint x="-162" y="-121" />
              <mxPoint x="1107" y="-121" />
              <mxPoint x="1107" y="380" />
              <mxPoint x="1127" y="380" />
              <mxPoint x="1127" y="490" />
            </Array>
          </mxGeometry>
        </mxCell>
        <mxCell id="label172" value="1" style="edgeLabel;resizable=0;html=1;align=left;verticalAlign=top;strokeColor=default;" parent="edge28" vertex="1" connectable="0">
          <mxGeometry x="-157" y="-150" as="geometry" />
        </mxCell>
      </root>
    </mxGraphModel>
  </diagram>
</mxfile>
